<svg width="24" height="24" viewBox="0 0 24 24" fill="none" xmlns="http://www.w3.org/2000/svg">
  <path d="M8.5 18H15.5C17.1569 18 18.5 16.6569 18.5 15V11.5C18.5 8.46243 16.0376 6 13 6H11C7.96243 6 5.5 8.46243 5.5 11.5V15C5.5 16.6569 6.84315 18 8.5 18Z" stroke="currentColor" stroke-width="1.8"/>
  <path d="M9.5 18C9.5 19.3807 10.6193 20.5 12 20.5C13.3807 20.5 14.5 19.3807 14.5 18" stroke="currentColor" stroke-width="1.8" stroke-linecap="round"/>
  <path d="M9 6.5C9 4.84315 10.3431 3.5 12 3.5C13.6569 3.5 15 4.84315 15 6.5" stroke="currentColor" stroke-width="1.8" stroke-linecap="round"/>
</svg>
