<svg width="24" height="24" viewBox="0 0 24 24" fill="none" xmlns="http://www.w3.org/2000/svg">
  <path d="M9.25 4.85C9.58854 3.38334 11.1117 2.49989 12.6382 2.83067L12.7789 2.86291C14.3054 3.19369 15.2633 4.63529 14.9248 6.10195L14.8739 6.32229C15.5557 6.62327 16.1812 7.00425 16.7312 7.45055L16.9189 7.32559C18.1689 6.49356 19.8648 6.79692 20.7238 8.0032L20.803 8.11785C21.662 9.32413 21.3588 10.977 20.1087 11.809L19.9211 11.934C19.9734 12.2883 20 12.6505 20 13.0185C20 13.3865 19.9734 13.7487 19.9211 14.103L20.1087 14.228C21.3588 15.06 21.662 16.7129 20.803 17.9192L20.7238 18.0338C19.8648 19.2401 18.1689 19.5434 16.9189 18.7114L16.7312 18.5864C16.1812 19.0327 15.5557 19.4137 14.8739 19.7147L14.9248 19.935C15.2633 21.4017 14.3054 22.8433 12.7789 23.1741L12.6382 23.2063C11.1117 23.5371 9.58854 22.6537 9.25 21.187L9.19912 20.9667C8.48225 20.6562 7.82655 20.2605 7.25262 19.7957L7.08112 19.9098C5.83111 20.7418 4.13516 20.4385 3.27616 19.2322L3.19699 19.1175C2.338 17.9113 2.64118 16.2584 3.89119 15.4263L4.06269 15.3122C4.02129 14.9532 4 14.5879 4 14.2178C4 13.8176 4.02487 13.423 4.07283 13.0362L3.89119 12.9151C2.64118 12.0831 2.338 10.4302 3.19699 9.2239L3.27616 9.10926C4.13516 7.90298 5.83111 7.59961 7.08112 8.43165L7.27967 8.56383C7.83829 8.11928 8.4715 7.7396 9.16002 7.43798L9.25 4.85Z" stroke="currentColor" stroke-width="1.6" stroke-linejoin="round"/>
  <circle cx="12" cy="13.0186" r="3.1" stroke="currentColor" stroke-width="1.8"/>
</svg>
